<svg width="89" height="68" viewBox="0 0 89 68" fill="none" xmlns="http://www.w3.org/2000/svg">
<g id="Logo Shapes 31">
<g id="v">
<path id="Vector" d="M46.2151 68L67.2151 0H88.5551L77.5851 35.511C77.5772 35.5224 77.5737 35.5362 77.5751 35.55L67.5551 68H46.2151Z" fill="url(#paint0_linear)"/>
<path id="Vector_2" d="M21.7151 68L42.7151 0H64.0551L53.3051 34.81L43.0551 68H21.7151Z" fill="url(#paint1_linear)"/>
<path id="Vector_3" d="M0.465298 0L21.7953 0L25.5853 12.2601V12.27L30.7553 29.01L20.0853 63.55L0.465298 0Z" fill="url(#paint2_linear)"/>
<g id="Group" style="mix-blend-mode:screen" opacity="0.4">
<g id="Vector_4" style="mix-blend-mode:screen" opacity="0.4">
<path d="M48.9251 66L85.8451 2L66.0751 66H48.9251Z" fill="white"/>
</g>
</g>
<g id="Group_2" style="mix-blend-mode:screen" opacity="0.4">
<g id="Vector_5" style="mix-blend-mode:screen" opacity="0.4">
<path d="M24.4251 66L61.3451 2L41.5751 66H24.4251Z" fill="white"/>
</g>
</g>
<g id="Group_3" style="mix-blend-mode:multiply" opacity="0.3">
<g id="Vector_6" style="mix-blend-mode:multiply" opacity="0.3">
<path d="M20.0852 63.55L25.5852 12.265L30.7572 29.01L20.0852 63.55Z" fill="black"/>
</g>
</g>
<g id="Group_4" style="mix-blend-mode:multiply" opacity="0.3">
<g id="Vector_7" style="mix-blend-mode:multiply" opacity="0.3">
<path d="M21.7151 68L42.7151 0H64.0551C60.4951 0.21 56.9451 0.299999 53.3851 0.459999L48.0551 0.620003L43.2851 0.731003C41.7051 6.261 40.0751 11.7807 38.3951 17.29L35.7951 25.79L33.1351 34.28C31.3251 39.93 29.4951 45.57 27.6051 51.2C26.6451 54 25.7051 56.82 24.7151 59.61C23.7251 62.4 22.7551 65.221 21.7151 68Z" fill="black"/>
</g>
</g>
<g id="Group_5" style="mix-blend-mode:multiply" opacity="0.3">
<g id="Vector_8" style="mix-blend-mode:multiply" opacity="0.3">
<path d="M46.2151 68L67.2151 0H88.5551C84.9951 0.21 81.4451 0.299999 77.8851 0.459999L72.5551 0.620003L67.7851 0.731003C66.2051 6.261 64.5751 11.7807 62.8951 17.29L60.2951 25.79L57.6351 34.28C55.8251 39.93 53.9951 45.57 52.1051 51.2C51.1451 54 50.2051 56.82 49.2151 59.61C48.2251 62.4 47.2551 65.221 46.2151 68Z" fill="black"/>
</g>
</g>
<g id="Group_6" style="mix-blend-mode:multiply" opacity="0.3">
<g id="Vector_9" style="mix-blend-mode:multiply" opacity="0.3">
<path d="M52.0546 68C54.6346 67.731 57.2146 67.56 59.8046 67.43C61.0946 67.36 62.3846 67.29 63.6746 67.25C64.7446 67.21 65.8146 67.17 66.8846 67.15C67.2146 65.98 67.5446 64.819 67.8846 63.65L69.1146 59.579C69.5146 58.23 69.9646 56.879 70.3846 55.529C70.8046 54.179 71.2446 52.829 71.6946 51.489C72.1446 50.149 72.5846 48.789 73.0646 47.459C73.5446 46.129 73.9946 44.779 74.4846 43.449C75.4546 40.789 76.4646 38.159 77.5746 35.549L67.5546 67.999L52.0546 68Z" fill="black"/>
</g>
</g>
<g id="Group_7" style="mix-blend-mode:multiply" opacity="0.3">
<g id="Vector_10" style="mix-blend-mode:multiply" opacity="0.3">
<path d="M27.2151 68C29.8551 67.731 32.4951 67.56 35.1351 67.43C36.4551 67.3513 37.7751 67.2913 39.0951 67.25C40.1951 67.21 41.2851 67.17 42.3851 67.141L43.4151 63.57L44.6651 59.41L45.9651 55.271C46.3951 53.88 46.8451 52.511 47.3051 51.141C47.7651 49.771 48.2151 48.391 48.7051 47.021C49.1951 45.651 49.6451 44.28 50.1551 42.93C51.1351 40.2 52.1751 37.49 53.3051 34.81L43.0551 68H27.2151Z" fill="black"/>
</g>
</g>
<g id="Group_8" style="mix-blend-mode:multiply" opacity="0.3">
<g id="Vector_11" style="mix-blend-mode:multiply" opacity="0.3">
<path d="M11.1353 0.4711C7.9253 0.5801 4.7253 0.670998 1.5153 0.739998C2.2853 3.05 3.0353 5.3601 3.7853 7.68C4.6453 10.3101 5.4853 12.9504 6.3053 15.601C7.9753 20.88 9.5853 26.19 11.1853 31.49L13.5353 39.4711L15.8153 47.4711C16.5553 50.1411 17.3053 52.81 17.9953 55.49C18.7053 58.18 19.4353 60.851 20.0853 63.55L0.465302 0H21.7953C18.2453 0.2261 14.6853 0.32 11.1353 0.4711Z" fill="black"/>
</g>
</g>
</g>
</g>
<defs>
<linearGradient id="paint0_linear" x1="67.3851" y1="67.252" x2="67.3851" y2="-0.883998" gradientUnits="userSpaceOnUse">
<stop stop-color="#00F3FF"/>
<stop offset="0.238" stop-color="#00EFFC"/>
<stop offset="0.44" stop-color="#00E5F4"/>
<stop offset="0.629" stop-color="#00D3E7"/>
<stop offset="0.81" stop-color="#00BAD4"/>
<stop offset="0.983" stop-color="#009BBC"/>
<stop offset="1" stop-color="#0098BA"/>
</linearGradient>
<linearGradient id="paint1_linear" x1="42.8851" y1="67.252" x2="42.8851" y2="-0.883998" gradientUnits="userSpaceOnUse">
<stop stop-color="#00F3FF"/>
<stop offset="0.238" stop-color="#00EFFC"/>
<stop offset="0.44" stop-color="#00E5F4"/>
<stop offset="0.629" stop-color="#00D3E7"/>
<stop offset="0.81" stop-color="#00BAD4"/>
<stop offset="0.983" stop-color="#009BBC"/>
<stop offset="1" stop-color="#0098BA"/>
</linearGradient>
<linearGradient id="paint2_linear" x1="8.4316" y1="-0.826099" x2="40.4325" y2="18.1242" gradientUnits="userSpaceOnUse">
<stop stop-color="#3E6896"/>
<stop offset="0.247" stop-color="#355881"/>
<stop offset="0.75" stop-color="#1F324E"/>
<stop offset="1" stop-color="#131D32"/>
</linearGradient>
</defs>
</svg>
