<svg width="60" height="74" viewBox="0 0 60 74" fill="none" xmlns="http://www.w3.org/2000/svg">
<g id="N">
<path id="Vector" d="M20.085 39.695V73.595H0V24.985C0.000177419 23.8208 0.382749 22.6889 1.0889 21.7633C1.79505 20.8377 2.78568 20.1696 3.90848 19.8619C5.03128 19.5541 6.2241 19.6236 7.30353 20.0598C8.38295 20.496 9.28924 21.2746 9.88303 22.276C9.89103 22.284 9.89102 22.292 9.89902 22.299L20.085 39.695Z" fill="url(#paint0_linear)"/>
<path id="Vector_2" d="M59.4648 1V49.658C59.4651 50.8252 59.0812 51.96 58.3723 52.8872C57.6633 53.8144 56.6688 54.4823 55.5423 54.788C54.4158 55.0936 53.2201 55.0198 52.1398 54.5781C51.0594 54.1364 50.1545 53.3513 49.5649 52.344L39.3799 34.937V1H59.4648Z" fill="url(#paint1_linear)"/>
<path id="Vector_3" d="M59.468 48.658V72.6H39.949L26.001 48.785C26.001 48.777 25.993 48.777 25.993 48.769L25.985 48.761L20.085 38.695L9.89902 21.304C9.89102 21.297 9.891 21.289 9.883 21.281C9.28921 20.2796 8.38295 19.5009 7.30353 19.0648C6.2241 18.6286 5.03128 18.5591 3.90848 18.8668C2.78568 19.1746 1.79505 19.8426 1.0889 20.7682C0.382749 21.6938 0.00017742 22.8258 0 23.99V0H19.519L35.881 27.968C35.8942 27.9787 35.9051 27.9919 35.913 28.007L38.503 32.439L38.511 32.447C38.519 32.455 38.519 32.471 38.527 32.478L39.3799 33.937L49.566 51.344C50.1552 52.3523 51.0602 53.1383 52.1409 53.5807C53.2217 54.0231 54.4181 54.0972 55.5452 53.7915C56.6722 53.4857 57.6672 52.8172 58.3763 51.8893C59.0854 50.9614 59.469 49.8258 59.468 48.658Z" fill="url(#paint2_linear)"/>
<g id="Group" style="mix-blend-mode:multiply" opacity="0.16">
<g id="Vector_4" style="mix-blend-mode:multiply" opacity="0.16">
<path d="M20.085 39.6949V46.7729C12.051 33.4549 3.555 33.9089 0 34.8649V24.9899C0.000177419 23.8257 0.382749 22.6938 1.0889 21.7682C1.79505 20.8425 2.78568 20.1745 3.90848 19.8667C5.03128 19.559 6.2241 19.6285 7.30353 20.0647C8.38295 20.5009 9.28924 21.2795 9.88303 22.2809C9.89103 22.2889 9.89102 22.2969 9.89902 22.3039L20.085 39.6949Z" fill="black"/>
</g>
</g>
<g id="Group_2" style="mix-blend-mode:multiply" opacity="0.16">
<g id="Vector_5" style="mix-blend-mode:multiply" opacity="0.16">
<path d="M59.4648 39.7429V49.6579C59.4651 50.8251 59.0812 51.9599 58.3723 52.8871C57.6633 53.8143 56.6688 54.4822 55.5423 54.7879C54.4158 55.0935 53.2201 55.0197 52.1398 54.578C51.0594 54.1363 50.1545 53.3512 49.5649 52.3439L39.3799 34.9369V29.1189C47.7809 38.7069 55.3918 39.9499 59.4648 39.7429Z" fill="black"/>
</g>
</g>
<g id="Group_3" style="mix-blend-mode:screen" opacity="0.5">
<g id="Vector_6" style="mix-blend-mode:screen" opacity="0.5">
<path d="M35.881 28.968C34.375 26.736 32.948 24.448 31.481 22.201L29.313 18.766L27.178 15.327C25.7507 13.023 24.3427 10.7117 22.954 8.39299C21.631 6.21699 20.348 4.01699 19.048 1.83299C15.948 1.84899 12.856 1.80899 9.763 1.80899L4.87802 1.746C3.46669 1.73 2.05333 1.706 0.638 1.674C0.582 4.368 0.502001 7.054 0.414001 9.748C0.271001 12.665 0.191 15.582 0 18.499V1H19.519L35.881 28.968Z" fill="white"/>
</g>
</g>
<g id="Group_4" style="mix-blend-mode:multiply" opacity="0.25">
<g id="Vector_7" style="mix-blend-mode:multiply" opacity="0.25">
<path d="M59.4647 1V47.187C59.1857 43.338 59.0257 39.487 58.8907 35.638L58.7468 29.868L58.6597 24.09L58.6277 18.32L58.6597 12.549L58.7468 6.771L58.8828 1.54199C57.2008 1.47899 55.5198 1.42299 53.8458 1.33499C51.9728 1.25599 50.0918 1.135 48.2188 1H59.4647Z" fill="black"/>
</g>
</g>
<g id="Group_5" style="mix-blend-mode:screen" opacity="0.5">
<g id="Vector_8" style="mix-blend-mode:screen" opacity="0.5">
<path d="M56.324 73.5999H39.946L25.998 49.7849C27.345 51.6499 28.6281 53.5549 29.8881 55.4759C30.5171 56.4399 31.147 57.4049 31.761 58.3849C32.375 59.3649 32.9961 60.3219 33.5941 61.3099C34.8127 63.2633 36.0027 65.2346 37.1641 67.2239C37.7641 68.2039 38.336 69.2079 38.91 70.2049L40.41 72.8189C42.985 72.8669 45.5591 72.9379 48.1411 73.0579C50.8651 73.1779 53.599 73.3369 56.324 73.5999Z" fill="white"/>
</g>
</g>
<g id="Group_6" style="mix-blend-mode:multiply" opacity="0.25">
<g id="Vector_9" style="mix-blend-mode:multiply" opacity="0.25">
<path d="M20.0848 49.0439V73.5999H2.9248C4.3518 73.4559 5.7858 73.3449 7.2128 73.2489C8.6398 73.1529 10.0738 73.0899 11.5128 73.0179C12.9388 72.9699 14.3658 72.899 15.8008 72.875C16.9558 72.851 18.1118 72.8189 19.2758 72.8029C19.2598 71.0259 19.2438 69.24 19.2678 67.463C19.2758 65.415 19.3228 63.3629 19.3678 61.3179C19.4318 59.2779 19.5118 57.229 19.6228 55.181C19.7338 53.133 19.8688 51.0919 20.0848 49.0439Z" fill="black"/>
</g>
</g>
<g id="Group_7" style="mix-blend-mode:screen" opacity="0.7">
<g id="Vector_10" style="mix-blend-mode:screen" opacity="0.7">
<path d="M20.085 39.695L9.89902 22.304C9.89102 22.297 9.89103 22.289 9.88303 22.281C9.28924 21.2796 8.38295 20.5009 7.30353 20.0648C6.2241 19.6286 5.03128 19.5591 3.90848 19.8668C2.78568 20.1746 1.79505 20.8426 1.0889 21.7682C0.382749 22.6938 0.000177419 23.8258 0 24.99V1C0.151 3 0.223026 5 0.327026 6.994C0.383026 7.994 0.42201 8.994 0.45401 9.994L0.554016 12.994C0.602016 14.994 0.673026 16.994 0.689026 18.988C0.697026 19.641 0.713008 20.288 0.721008 20.941C0.849008 20.805 0.983999 20.67 1.112 20.534C1.36168 20.3139 1.62235 20.1067 1.89301 19.913C2.17201 19.737 2.47502 19.594 2.76202 19.442C3.07202 19.315 3.383 19.219 3.694 19.108C4.021 19.044 4.34002 18.972 4.66602 18.932C5.00102 18.916 5.328 18.892 5.655 18.9C5.982 18.948 6.31601 18.956 6.64301 19.036C6.96522 19.1131 7.28192 19.2117 7.591 19.331C7.89704 19.4598 8.19289 19.6115 8.47601 19.785C8.7573 19.9647 9.0247 20.1653 9.276 20.385C9.499 20.624 9.75401 20.847 9.95401 21.102L10.512 21.902L10.412 21.782L10.523 21.934C12.181 24.8513 13.8097 27.7897 15.409 30.749C16.2144 32.223 17.0034 33.708 17.776 35.204C18.554 36.698 19.343 38.181 20.085 39.695Z" fill="white"/>
</g>
</g>
<g id="Group_8" style="mix-blend-mode:screen" opacity="0.7">
<g id="Vector_11" style="mix-blend-mode:screen" opacity="0.7">
<path d="M59.4653 49.6579V73.5999C59.3213 71.6069 59.2504 69.6069 59.1464 67.6139C59.0424 65.6209 58.9943 63.6209 58.9153 61.6289C58.8753 59.6359 58.8154 57.6359 58.7794 55.6429C58.7714 54.9899 58.7554 54.3359 58.7474 53.6829C58.5804 53.8659 58.4054 54.0489 58.2294 54.2249C57.5823 54.7866 56.8251 55.2072 56.0063 55.4599C55.6002 55.5856 55.184 55.6763 54.7623 55.7309C54.3352 55.7696 53.9054 55.7642 53.4794 55.7149C52.6244 55.6289 51.798 55.3598 51.0563 54.9259C50.683 54.7012 50.3378 54.4327 50.0283 54.1259L49.5583 53.6399C49.4388 53.489 49.327 53.3321 49.2233 53.1699L49.0643 52.9379L48.9924 52.8269L48.9203 52.7149L48.8804 52.6509L48.6094 52.1649L48.0604 51.1929L46.9523 49.2399L44.7844 45.3269L42.6403 41.3899C41.9233 40.0829 41.2454 38.7519 40.5524 37.4289C39.8664 36.1219 39.1813 34.8069 38.5273 33.4829L39.3804 34.9419L49.5663 52.3489C50.1564 53.3561 51.0617 54.1409 52.1424 54.5822C53.2231 55.0235 54.4189 55.0967 55.5453 54.7905C56.6718 54.4843 57.666 53.8157 58.3745 52.888C59.083 51.9603 59.4664 50.8252 59.4653 49.6579Z" fill="white"/>
</g>
</g>
</g>
<defs>
<linearGradient id="paint0_linear" x1="10.0425" y1="73.4872" x2="10.0425" y2="25.0651" gradientUnits="userSpaceOnUse">
<stop stop-color="#00F3FF"/>
<stop offset="1" stop-color="#131D32"/>
</linearGradient>
<linearGradient id="paint1_linear" x1="49.4224" y1="2.29536" x2="49.4224" y2="49.1982" gradientUnits="userSpaceOnUse">
<stop stop-color="#00F3FF"/>
<stop offset="1" stop-color="#131D32"/>
</linearGradient>
<linearGradient id="paint2_linear" x1="0" y1="36.3" x2="59.468" y2="36.3" gradientUnits="userSpaceOnUse">
<stop offset="0.0284072" stop-color="#00F3FF" stop-opacity="0.5"/>
<stop offset="0.085701" stop-color="#00F3FF" stop-opacity="0.73711"/>
<stop offset="0.111644" stop-color="#00F3FF" stop-opacity="0.823332"/>
<stop offset="0.111744" stop-color="#ADD44F" stop-opacity="0.844888"/>
<stop offset="0.111844" stop-color="#ADD44F" stop-opacity="0.844888"/>
<stop offset="0.111944" stop-color="#00F3FF" stop-opacity="0.860715"/>
<stop offset="0.137786" stop-color="#D5C926" stop-opacity="0.925266"/>
<stop offset="0.1618" stop-color="#00F3FF" stop-opacity="0.928738"/>
<stop offset="0.1619" stop-color="#DEC71E" stop-opacity="0.941342"/>
<stop offset="0.162" stop-color="#FBC000"/>
<stop offset="0.189871" stop-color="#68D923" stop-opacity="0.932211"/>
<stop offset="0.3069" stop-color="#5CE8A1" stop-opacity="0.684131"/>
<stop offset="0.307" stop-color="#FBB500"/>
<stop offset="0.3071" stop-color="#F81100"/>
<stop offset="0.446" stop-color="#FBA300"/>
<stop offset="0.554468" stop-color="#8DDC70" stop-opacity="0.780585"/>
<stop offset="0.581" stop-color="#FA8900"/>
<stop offset="0.712" stop-color="#FA6800"/>
<stop offset="0.842" stop-color="#F93F00"/>
<stop offset="0.9669" stop-color="#F81000"/>
<stop offset="0.967" stop-color="#F81000"/>
<stop offset="1" stop-color="#F80300"/>
</linearGradient>
</defs>
</svg>
